{"title":"WWE.Raw.12.23.13.DSR.XviD-XWT [P2PDL]","uid":9389690,"size":1316927940,"categoryP":"video","categoryS":"movies","magnet":"?xt=urn:btih:67ec39fa22ead3a5d8fb3daf04eb604017e4896b&amp;dn=WWE.Raw.12.23.13.DSR.XviD-XWT+%5BP2PDL%5D&amp;tr=udp%3A%2F%2Ftracker.openbittorrent.com%3A80&amp;tr=udp%3A%2F%2Fopen.demonii.com%3A1337&amp;tr=udp%3A%2F%2Ftracker.coppersurfer.tk%3A6969&amp;tr=udp%3A%2F%2Fexodus.desync.com%3A6969","seeders":1,"leechers":0,"uploader":"ValidusVyto","files":3,"time":1387864141,"description":"WWE.Raw.12.23.13.DSR.XviD-XWT\n\nInfo:\nGeneral\nComplete name                            : WWE.Raw.12.23.13.DSR.XviD-XWT/WWE.Raw.12.23.13.DSR.XviD-XWT.avi\nFormat                                   : AVI\nFormat/Info                              : Audio Video Interleave\nFile size                                : 1.23 GiB\nDuration                                 : 2h 11mn\nOverall bit rate                         : 1 338 Kbps\n\nVideo\nID                                       : 0\nFormat                                   : MPEG-4 Visual\nFormat profile                           : Advanced Simple@L5\nFormat settings, BVOP                    : 2\nFormat settings, QPel                    : No\nFormat settings, GMC                     : No warppoints\nFormat settings, Matrix                  : Default (H.263)\nCodec ID                                 : XVID\nCodec ID/Hint                            : XviD\nDuration                                 : 2h 11mn\nBit rate                                 : 1 198 Kbps\nWidth                                    : 640 pixels\nHeight                                   : 368 pixels\nDisplay aspect ratio                     : 1.739\nFrame rate                               : 25.000 fps\nColor space                              : YUV\nChroma subsampling                       : 4:2:0\nBit depth                                : 8 bits\nScan type                                : Progressive\nCompression mode                         : Lossy\nBits/(Pixel*Frame)                       : 0.203\nStream size                              : 1.10 GiB (90%)\nWriting library                          : XviD 1.1.2 (UTC 2006-11-01)\n\nAudio\nID                                       : 1\nFormat                                   : MPEG Audio\nFormat version                           : Version 1\nFormat profile                           : Layer 3\nMode                                     : Joint stereo\nMode extension                           : MS Stereo\nCodec ID                                 : 55\nCodec ID/Hint                            : MP3\nDuration                                 : 2h 11mn\nBit rate mode                            : Constant\nBit rate                                 : 128 Kbps\nChannel(s)                               : 2 channels\nSampling rate                            : 44.1 KHz\nCompression mode                         : Lossy\nStream size                              : 120 MiB (10%)\nAlignment                                : Aligned on interleaves\nInterleave, duration                     : 26 ms (0.65 video frame)\nInterleave, preload duration             : 809 ms\n\n\n","torrent":{"xt":"urn:btih:67ec39fa22ead3a5d8fb3daf04eb604017e4896b","amp;dn":"WWE.Raw.12.23.13.DSR.XviD-XWT+%5BP2PDL%5D","amp;tr":["udp%3A%2F%2Ftracker.openbittorrent.com%3A80","udp%3A%2F%2Fopen.demonii.com%3A1337","udp%3A%2F%2Ftracker.coppersurfer.tk%3A6969","udp%3A%2F%2Fexodus.desync.com%3A6969"],"infoHash":"67ec39fa22ead3a5d8fb3daf04eb604017e4896b","infoHashBuffer":{"type":"Buffer","data":[103,236,57,250,34,234,211,165,216,251,61,175,4,235,96,64,23,228,137,107]},"announce":[],"urlList":[]}}